<?xml version="1.0" encoding="utf-8"?>
<!-- Generator: Adobe Illustrator 16.2.0, SVG Export Plug-In . SVG Version: 6.00 Build 0)  -->
<!DOCTYPE svg PUBLIC "-//W3C//DTD SVG 1.1//EN" "http://www.w3.org/Graphics/SVG/1.1/DTD/svg11.dtd">
<svg version="1.1" id="Layer_1" xmlns="http://www.w3.org/2000/svg" xmlns:xlink="http://www.w3.org/1999/xlink" x="0px" y="0px"
	 width="30px" height="30px" viewBox="0 0 30 30" enable-background="new 0 0 30 30" xml:space="preserve">
<path fill="#33598A" d="M26.437-0.003H3.563c-1.97,0-3.567,1.593-3.567,3.559v22.89c0,1.966,1.597,3.559,3.567,3.559h22.873
	c1.97,0,3.567-1.593,3.567-3.559V3.556C30.004,1.59,28.407-0.003,26.437-0.003z M20.841,4.254c0-0.463,0.375-0.838,0.839-0.838
	h4.057c0.463,0,0.839,0.375,0.839,0.838v4.047c0,0.463-0.376,0.838-0.839,0.838H21.68c-0.464,0-0.839-0.375-0.839-0.838V4.254z
	 M15.035,9.278c3.187,0,5.771,2.578,5.771,5.757c0,3.18-2.583,5.758-5.771,5.758s-5.771-2.578-5.771-5.758
	C9.264,11.856,11.848,9.278,15.035,9.278z M26.646,25.678c0,0.462-0.376,0.837-0.839,0.837H4.263c-0.464,0-0.84-0.375-0.84-0.837
	v-13.05h2.808c-0.211,0.768-0.325,1.574-0.325,2.407c0,5.021,4.095,9.107,9.128,9.107c5.033,0,9.128-4.086,9.128-9.107
	c0-0.833-0.113-1.64-0.324-2.407h2.808V25.678z"/>
</svg>
