<?xml version="1.0" encoding="utf-8"?>
<!-- Generator: Adobe Illustrator 16.2.0, SVG Export Plug-In . SVG Version: 6.00 Build 0)  -->
<!DOCTYPE svg PUBLIC "-//W3C//DTD SVG 1.1//EN" "http://www.w3.org/Graphics/SVG/1.1/DTD/svg11.dtd">
<svg version="1.1" id="Слой_1" xmlns="http://www.w3.org/2000/svg" xmlns:xlink="http://www.w3.org/1999/xlink" x="0px" y="0px"
	 width="17px" height="17px" viewBox="0 0 17 17" enable-background="new 0 0 17 17" xml:space="preserve">
<g>
	<path fill="#0039A6" d="M15.789,16.953c-0.291,0-0.58-0.111-0.803-0.332l-4.695-4.697c-0.443-0.443-0.443-1.16,0-1.604
		c0.441-0.445,1.16-0.445,1.604,0l4.697,4.695c0.443,0.443,0.443,1.162,0,1.605C16.369,16.842,16.08,16.953,15.789,16.953z"/>
</g>
<g>
	<path fill="#0039A6" d="M6.86,0.047c-3.746,0-6.784,3.037-6.784,6.784c0,3.747,3.038,6.784,6.784,6.784
		c3.748,0,6.783-3.037,6.783-6.784C13.643,3.084,10.607,0.047,6.86,0.047z M6.86,11.701c-2.69,0-4.871-2.18-4.871-4.87
		S4.169,1.96,6.86,1.96c2.689,0,4.871,2.18,4.871,4.871S9.549,11.701,6.86,11.701z"/>
</g>
</svg>
